<?xml version="1.0" encoding="iso-8859-1"?>
<!-- Generator: Adobe Illustrator 19.0.0, SVG Export Plug-In . SVG Version: 6.00 Build 0)  -->
<svg version="1.1" id="Layer_1" xmlns="http://www.w3.org/2000/svg" xmlns:xlink="http://www.w3.org/1999/xlink" x="0px" y="0px"
	 viewBox="0 0 297.002 297.002" style="enable-background:new 0 0 297.002 297.002;" xml:space="preserve">
<g>
	<g id="XMLID_35_">
		<g>
			<path style="fill:#D35400;" d="M274.64,58.882l-9.98,49.91l-49.9,9.98l-14.86-14.86l20.77-3.81c3.92-0.72,7.12-3.56,8.3-7.36
				c1.18-3.8,0.16-7.95-2.65-10.77l-8.34-8.34c-41.13-41.12-108.05-41.12-149.18,0c-19.9,19.91-30.87,46.4-30.87,74.59
				s10.97,54.68,30.87,74.59c17.73,17.72,41.23,28.57,66.18,30.56c2.78,0.22,5.56,0.33,8.34,0.33c21.82,0,43.23-6.75,61.04-19.39
				c3.38-2.39,7.89-2.07,10.74,0.78c2.35,2.35,2.5,5.08,2.38,6.5c-0.12,1.43-0.73,4.12-3.45,6.06
				c-48.61,34.63-114.59,29.08-156.87-13.2c-23.04-23.04-35.72-53.67-35.72-86.26c0.01-32.58,12.71-63.21,35.76-86.24
				c23.46-23.43,54.31-35.13,85.29-35.13c31.48,0,63.09,12.08,87.19,36.18l7.8,7.8c2.81,2.81,6.94,3.84,10.74,2.67
				c3.79-1.17,6.63-4.34,7.37-8.24l4.07-21.33L274.64,58.882z"/>
			<path d="M293.86,47.782c2.54,2.53,3.64,6.17,2.93,9.68l-12.5,62.54c-0.85,4.24-4.17,7.56-8.41,8.41l-62.54,12.51
				c-3.52,0.7-7.15-0.4-9.69-2.93l-33.35-33.36c-2.82-2.82-3.84-6.96-2.66-10.77c1.19-3.8,4.39-6.63,8.3-7.35l20.21-3.71
				c-32.97-26.64-81.56-24.64-112.18,5.99c-15.86,15.86-24.6,36.97-24.6,59.43s8.74,43.57,24.6,59.43
				c29.08,29.08,74.5,32.95,107.98,9.18c11.93-8.47,28.04-7.17,38.31,3.1c6.18,6.18,9.31,14.73,8.59,23.44
				c-0.73,8.73-5.24,16.66-12.38,21.74c-24.23,17.26-53.38,26.49-83.12,26.49c-3.76,0.01-7.51-0.14-11.28-0.44
				c-33.96-2.67-65.95-17.43-90.07-41.55c-27.09-27.09-42.01-63.11-42-101.42c0.01-38.31,14.94-74.33,42.05-101.41
				c53.52-53.47,139.72-55.07,196.22-5.12l4.13-21.67c0.74-3.9,3.58-7.07,7.38-8.23c3.79-1.17,7.92-0.14,10.73,2.66L293.86,47.782z
				 M264.66,108.792l9.98-49.91l-14.98-14.98l-4.07,21.33c-0.74,3.9-3.58,7.07-7.37,8.24c-3.8,1.17-7.93,0.14-10.74-2.67l-7.8-7.8
				c-24.1-24.1-55.71-36.18-87.19-36.18c-30.98,0-61.83,11.7-85.29,35.13c-23.05,23.03-35.75,53.66-35.76,86.24
				c0,32.59,12.68,63.22,35.72,86.26c42.28,42.28,108.26,47.83,156.87,13.2c2.72-1.94,3.33-4.63,3.45-6.06
				c0.12-1.42-0.03-4.15-2.38-6.5c-2.85-2.85-7.36-3.17-10.74-0.78c-17.81,12.64-39.22,19.39-61.04,19.39
				c-2.78,0-5.56-0.11-8.34-0.33c-24.95-1.99-48.45-12.84-66.18-30.56c-19.9-19.91-30.87-46.4-30.87-74.59s10.97-54.68,30.87-74.59
				c41.13-41.12,108.05-41.12,149.18,0l8.34,8.34c2.81,2.82,3.83,6.97,2.65,10.77c-1.18,3.8-4.38,6.64-8.3,7.36l-20.77,3.81
				l14.86,14.86L264.66,108.792z"/>
		</g>
	</g>
</g>
<g>
</g>
<g>
</g>
<g>
</g>
<g>
</g>
<g>
</g>
<g>
</g>
<g>
</g>
<g>
</g>
<g>
</g>
<g>
</g>
<g>
</g>
<g>
</g>
<g>
</g>
<g>
</g>
<g>
</g>
</svg>
