<svg height="511pt" viewBox="-54 0 511 511.9975" width="511pt" xmlns="http://www.w3.org/2000/svg"><path d="m392.214844 147.453125-53.308594-30.753906-.003906.003906c-5.21875-3.453125-12.207032-3.378906-19.890625 1.058594l-43.082031 24.875c-16.148438 9.324219-29.238282 34.332031-29.238282 55.859375 0 12.390625 4.339844 20.917968 11.097656 24.15625l-.007812.007812 53.09375 30.691406c5.183594 3.25 12.054688 3.085938 19.589844-1.261718l43.082031-24.875c16.148437-9.324219 29.234375-34.332032 29.234375-55.859375.003906-12.070313-4.109375-20.476563-10.566406-23.902344zm0 0" fill="#abb7b7"/><path d="m301.230469 229.984375c0-21.527344 13.089843-46.539063 29.234375-55.859375l43.085937-24.875c16.144531-9.320312 29.234375.574219 29.234375 22.101562 0 21.527344-13.089844 46.539063-29.234375 55.859376l-43.085937 24.875c-16.144532 9.324218-29.234375-.570313-29.234375-22.101563zm0 0" fill="#e9e9e9"/><g fill="#abb7b7"><path d="m355.710938 39.734375-7.703126-5.824219c-.804687-.605468-1.65625-1.089844-2.542968-1.464844l-52.652344-30.480468v.007812c-9.332031-6.152344-23.910156 2.539063-32.984375 19.875l-38.167969 72.929688c-9.289062 17.75-9.289062 37.832031 0 44.855468l7.703125 5.824219c.445313.335938.910157.628907 1.382813.894531l-.003906.007813 54.15625 31.265625.003906-.003906c9.339844 5.71875 23.675781-2.972656 32.640625-20.101563l38.167969-72.925781c9.289062-17.75 9.289062-37.835938 0-44.859375zm0 0"/><path d="m247.71875 365.039062-53.511719-30.964843-.003906.011719c-4.769531-2.757813-10.992187-2.511719-17.800781 1.421874l-4.054688 2.339844c-15.027344 8.675782-27.207031 31.949219-27.207031 51.984375v62.855469c0 10.96875 3.652344 18.679688 9.421875 22l.066406.039062c.136719.078126.269532.164063.410156.238282l53.679688 30.996094v-.003907c4.816406 2.980469 11.183594 2.816407 18.164062-1.214843l4.058594-2.339844c15.023438-8.675782 27.207032-31.949219 27.207032-51.984375v-62.855469c-.003907-11.589844-4.082032-19.546875-10.429688-22.523438zm0 0"/><path d="m181.625 372.359375-7.703125-5.824219c-.558594-.421875-1.136719-.78125-1.730469-1.089844v-.003906l-54.320312-31.367187v.003906c-9.347656-5.105469-23.328125 3.574219-32.128906 20.394531l-38.167969 72.925782c-9.289063 17.75-9.289063 37.832031 0 44.855468l7.703125 5.824219c.605468.457031 1.242187.847656 1.894531 1.175781v.003906l53.300781 30.765626c9.332032 6.148437 23.910156-2.542969 32.984375-19.878907l38.167969-72.929687c9.289062-17.75 9.289062-37.832032 0-44.855469zm0 0"/><path d="m177.773438 177.953125-30.464844-23.03125c-.753906-.570313-1.539063-1.046875-2.347656-1.453125v-.003906l-53.644532-31.003906v.011718c-11.484375-6.753906-28.945312 3.921875-39.890625 24.832032-11.417969 21.816406-11.417969 46.496093 0 55.128906l30.464844 23.03125c.800781.605468 1.640625 1.105468 2.507813 1.523437v.007813l52.800781 30.488281c11.464843 7.609375 29.410156-3.074219 40.574219-24.40625 11.417968-21.8125 11.417968-46.492187 0-55.125zm0 0"/><path d="m145.71875 289.445312.003906-.003906-53.207031-30.734375c-5.195313-3.320312-12.109375-3.1875-19.699219 1.195313l-43.082031 24.875c-16.148437 9.320312-29.234375 34.332031-29.234375 55.859375 0 12.078125 4.121094 20.492187 10.589844 23.910156l53.554687 30.929687.003907-.003906c5.1875 3.269532 12.070312 3.113282 19.621093-1.246094l43.085938-24.875c16.144531-9.320312 29.234375-34.328124 29.234375-55.859374 0-12.25-4.242188-20.726563-10.871094-24.046876zm0 0"/><path d="m351.859375 309.558594-30.464844-23.03125c-.816406-.617188-1.671875-1.121094-2.554687-1.542969v-.007813l-53.519532-30.953124v.011718c-11.484374-6.660156-28.890624 4.011719-39.8125 24.875-11.414062 21.816406-11.414062 46.496094 0 55.125l85.929688 55.164063v-.003907c11.46875 7.410157 29.304688-3.273437 40.421875-24.507812v-.003906c11.417969-21.8125 11.417969-46.492188 0-55.125zm0 0"/><path d="m248.132812 36.972656-53.738281-31.050781-.003906.011719c-4.796875-2.875-11.089844-2.667969-17.988281 1.3125l-4.058594 2.34375c-15.023438 8.675781-27.207031 31.949218-27.207031 51.984375v62.855469c0 11.433593 3.972656 19.335937 10.175781 22.402343l-.003906.007813 53.277344 30.78125c4.832031 3.066406 11.25 2.933594 18.296874-1.136719l4.058594-2.339844c15.023438-8.675781 27.207032-31.949219 27.207032-51.984375v-62.855468c-.003907-11.339844-3.90625-19.207032-10.015626-22.332032zm0 0"/></g><path d="m230.9375 174.140625-4.058594 2.34375c-15.023437 8.675781-27.207031-.53125-27.207031-20.566406v-62.855469c0-20.035156 12.183594-43.308594 27.207031-51.984375l4.058594-2.34375c15.027344-8.675781 27.207031.535156 27.207031 20.570313v62.851562c0 20.035156-12.179687 43.3125-27.207031 51.984375zm0 0" fill="#e9e9e9"/><path d="m177.773438 233.078125c-11.417969 21.816406-29.929688 32.503906-41.34375 23.871094l-30.46875-23.027344c-11.414063-8.632813-11.414063-33.3125 0-55.128906 11.417968-21.816407 29.929687-32.5 41.347656-23.871094l30.464844 23.03125c11.417968 8.632813 11.417968 33.3125 0 55.125zm0 0" fill="#e9e9e9"/><path d="m156.589844 313.492188c0 21.53125-13.089844 46.539062-29.234375 55.859374l-43.085938 24.875c-16.144531 9.324219-29.234375-.570312-29.234375-22.097656 0-21.53125 13.089844-46.539062 29.234375-55.863281l43.085938-24.875c16.144531-9.320313 29.234375.574219 29.234375 22.101563zm0 0" fill="#e9e9e9"/><path d="m173.921875 366.535156 7.703125 5.824219c9.289062 7.023437 9.289062 27.105469 0 44.855469l-38.167969 72.925781c-9.292969 17.75-24.351562 26.445313-33.644531 19.421875l-7.703125-5.820312c-9.289063-7.023438-9.289063-27.105469 0-44.855469l38.167969-72.929688c9.292968-17.75 24.351562-26.445312 33.644531-19.421875zm0 0" fill="#e9e9e9"/><path d="m280.046875 310.398438c11.417969-21.816407 29.929687-32.503907 41.347656-23.871094l30.464844 23.03125c11.414063 8.628906 11.414063 33.3125 0 55.125-11.417969 21.816406-29.929687 32.503906-41.347656 23.871094l-30.464844-23.03125c-11.417969-8.628907-11.417969-33.308594 0-55.125zm0 0" fill="#e9e9e9"/><path d="m283.898438 176.941406-7.703126-5.820312c-9.289062-7.023438-9.289062-27.105469 0-44.855469l38.167969-72.929687c9.289063-17.75 24.351563-26.445313 33.640625-19.421876l7.703125 5.824219c9.292969 7.023438 9.292969 27.105469 0 44.855469l-38.164062 72.925781c-9.292969 17.75-24.351563 26.445313-33.644531 19.421875zm0 0" fill="#e9e9e9"/><path d="m226.878906 369.335938 4.058594-2.34375c15.027344-8.671876 27.207031.535156 27.207031 20.570312v62.855469c0 20.035156-12.179687 43.308593-27.207031 51.980469l-4.058594 2.34375c-15.023437 8.675781-27.207031-.53125-27.207031-20.566407v-62.855469c.003906-20.035156 12.183594-43.308593 27.207031-51.984374zm0 0" fill="#e9e9e9"/></svg>