<?xml version="1.0" encoding="iso-8859-1"?>
<!-- Generator: Adobe Illustrator 19.0.0, SVG Export Plug-In . SVG Version: 6.00 Build 0)  -->
<svg version="1.1" id="Layer_1" xmlns="http://www.w3.org/2000/svg" xmlns:xlink="http://www.w3.org/1999/xlink" x="0px" y="0px"
	 viewBox="0 0 296.998 296.998" style="enable-background:new 0 0 296.998 296.998;" xml:space="preserve">
<g>
	<g id="XMLID_30_">
		<g>
			<path style="fill:#EF717A;" d="M272.515,197.931l-5.04,19.11l-44.91,15.41l-31.5-35.53l4.99-18.96l12.84,14.95
				c2.42,2.82,6.2,4.07,9.83,3.23c3.62-0.83,6.48-3.6,7.43-7.2l2.8-10.64c13.82-52.48-17.63-106.41-70.11-120.23
				c-25.4-6.69-51.91-3.08-74.63,10.17s-38.92,34.54-45.61,59.94c-5.95,22.61-3.65,46.66,6.47,67.7
				c5.01,10.4,11.77,19.78,19.9,27.73c8.12,7.95,17.61,14.49,28.07,19.24c3.52,1.59,5.38,5.38,4.42,9.02
				c-0.79,2.99-2.92,4.4-4.12,4.97c-1.21,0.58-3.66,1.35-6.5,0.07c-50.77-22.91-77.3-78.69-63.09-132.64
				c7.74-29.4,26.47-54.02,52.73-69.33c17.63-10.28,37.23-15.53,57.11-15.53c9.74,0,19.54,1.26,29.21,3.81
				c60.3,15.91,96.29,78.5,80.22,139.51l-2.62,9.96c-0.95,3.58,0.17,7.39,2.89,9.91c2.73,2.51,6.62,3.31,10.11,2.07L272.515,197.931
				z"/>
			<path d="M293.775,174.851c2.72,2.51,3.84,6.32,2.89,9.9l-11.21,42.56c-0.85,3.24-3.26,5.83-6.42,6.92l-56.29,19.31
				c-3.82,1.31-8.05,0.19-10.73-2.83l-39.47-44.52c-2.22-2.51-3.04-5.95-2.19-9.19l11.21-42.56c0.94-3.59,3.81-6.37,7.43-7.2
				c3.63-0.83,7.41,0.41,9.83,3.23l12.48,14.55c5.97-39.1-18.47-77.32-57.56-87.61c-20.23-5.33-41.35-2.45-59.45,8.11
				c-18.11,10.56-31.01,27.52-36.34,47.75c-9.78,37.12,8.46,75.54,43.35,91.36c12.44,5.63,18.96,19.23,15.51,32.33
				c-2.08,7.89-7.5,14.43-14.86,17.94c-3.78,1.8-7.85,2.7-11.93,2.7c-3.89,0-7.77-0.82-11.41-2.46
				c-28.5-12.86-51.71-35.53-65.37-63.84c-13.8-28.63-16.94-61.35-8.84-92.13c9.1-34.56,31.13-63.52,62.01-81.51
				c30.88-18.01,66.93-22.9,101.49-13.78c68.26,18.01,110.07,86.74,96.36,155.74l19.4-6.85
				C287.165,171.541,291.045,172.341,293.775,174.851z M267.475,217.041l5.04-19.11l-19.11,6.74c-3.49,1.24-7.38,0.44-10.11-2.07
				c-2.72-2.52-3.84-6.33-2.89-9.91l2.62-9.96c16.07-61.01-19.92-123.6-80.22-139.51c-9.67-2.55-19.47-3.81-29.21-3.81
				c-19.88,0-39.48,5.25-57.11,15.53c-26.26,15.31-44.99,39.93-52.73,69.33c-14.21,53.95,12.32,109.73,63.09,132.64
				c2.84,1.28,5.29,0.51,6.5-0.07c1.2-0.57,3.33-1.98,4.12-4.97c0.96-3.64-0.9-7.43-4.42-9.02c-10.46-4.75-19.95-11.29-28.07-19.24
				c-8.13-7.95-14.89-17.33-19.9-27.73c-10.12-21.04-12.42-45.09-6.47-67.7c6.69-25.4,22.89-46.69,45.61-59.94
				s49.23-16.86,74.63-10.17c52.48,13.82,83.93,67.75,70.11,120.23l-2.8,10.64c-0.95,3.6-3.81,6.37-7.43,7.2
				c-3.63,0.84-7.41-0.41-9.83-3.23l-12.84-14.95l-4.99,18.96l31.5,35.53L267.475,217.041z"/>
		</g>
	</g>
</g>
<g>
</g>
<g>
</g>
<g>
</g>
<g>
</g>
<g>
</g>
<g>
</g>
<g>
</g>
<g>
</g>
<g>
</g>
<g>
</g>
<g>
</g>
<g>
</g>
<g>
</g>
<g>
</g>
<g>
</g>
</svg>
